<?xml version="1.0" encoding="iso-8859-1"?>
<!-- Uploaded to: SVG Repo, www.svgrepo.com, Generator: SVG Repo Mixer Tools -->
<svg height="800px" width="800px" version="1.1" id="Capa_1" xmlns="http://www.w3.org/2000/svg" xmlns:xlink="http://www.w3.org/1999/xlink" 
	 viewBox="0 0 50 50" xml:space="preserve">
<path style="fill:#83CD02;" d="M1,24.5c-0.553,0-1-0.447-1-1c0-7.168,5.832-13,13-13h25c0.553,0,1,0.447,1,1s-0.447,1-1,1H13
	c-6.065,0-11,4.935-11,11C2,24.053,1.553,24.5,1,24.5z"/>
<polygon style="fill:#83CD02;" points="38,19.5 49,11.5 38,3.5 "/>
<path style="fill:#83CD02;" d="M37,39.5H12c-0.553,0-1-0.447-1-1s0.447-1,1-1h25c6.065,0,11-4.935,11-11c0-0.553,0.447-1,1-1
	s1,0.447,1,1C50,33.668,44.168,39.5,37,39.5z"/>
<polygon style="fill:#83CD02;" points="12,30.5 1,38.5 12,46.5 "/>
</svg>